<?xml version="1.0" encoding="utf-8"?>
<!-- Generator: Adobe Illustrator 25.4.1, SVG Export Plug-In . SVG Version: 6.00 Build 0)  -->
<svg version="1.1" id="Layer_1" xmlns="http://www.w3.org/2000/svg" xmlns:xlink="http://www.w3.org/1999/xlink" x="0px" y="0px"
	 viewBox="0 0 16 16" style="enable-background:new 0 0 16 16;" xml:space="preserve">
<style type="text/css">
	.st0{fill-rule:evenodd;clip-rule:evenodd;fill:#D2D2D2;}
</style>
<path class="st0" d="M5.9,9.2C5.6,8.9,5.5,8.4,5.5,8c0-0.4,0.2-0.9,0.5-1.2L5,5.9C4.5,6.5,4.2,7.2,4.2,8S4.5,9.5,5,10.1L5.9,9.2z"/>
<path class="st0" d="M3.5,10.5c-0.7-0.7-1-1.6-1-2.5s0.3-1.8,1-2.5L2.6,4.5C1.6,5.5,1.2,6.7,1.2,8c0,1.3,0.5,2.5,1.4,3.5L3.5,10.5z"
	/>
<rect x="7.4" y="7.4" class="st0" width="1.1" height="1.1"/>
<path class="st0" d="M10.1,6.8c0.3,0.3,0.5,0.8,0.5,1.2c0,0.4-0.2,0.9-0.5,1.2l0.9,0.9c0.6-0.6,0.9-1.3,0.9-2.1S11.5,6.5,11,5.9
	L10.1,6.8z"/>
<path class="st0" d="M12.5,5.5c0.7,0.7,1,1.6,1,2.5s-0.3,1.8-1,2.5l0.9,0.9c0.9-1,1.4-2.2,1.4-3.5c0-1.3-0.5-2.5-1.4-3.5L12.5,5.5z"
	/>
</svg>
