<?xml version="1.0" encoding="utf-8"?>
<!-- Generator: Adobe Illustrator 25.4.1, SVG Export Plug-In . SVG Version: 6.00 Build 0)  -->
<svg version="1.1" id="Layer_1" xmlns="http://www.w3.org/2000/svg" xmlns:xlink="http://www.w3.org/1999/xlink" x="0px" y="0px"
	 viewBox="0 0 14 16" style="enable-background:new 0 0 14 16;" xml:space="preserve">
<style type="text/css">
	.st0{fill:none;stroke:#D2D2D2;stroke-miterlimit:10;}
</style>
<circle class="st0" cx="7" cy="8" r="5.5"/>
<path class="st0" d="M7,13.5"/>
<path class="st0" d="M7,2.4"/>
<path class="st0" d="M7,2.4c0,0-1.3,1.5-1.3,5.4S7,13.5,7,13.5"/>
<path class="st0" d="M7,2.5c0,0-3.6,1.5-3.6,5.4S7,13.6,7,13.6"/>
<path class="st0" d="M7.2,13.6c0,0,1.3-1.5,1.3-5.4S7.2,2.5,7.2,2.5"/>
<path class="st0" d="M7.2,13.5c0,0,3.6-1.5,3.6-5.4S7.2,2.4,7.2,2.4"/>
<line class="st0" x1="12.6" y1="8" x2="1.4" y2="8"/>
<path class="st0" d="M12.6,7.6c0,0-1.9-2.1-5.5-2.1S1.4,7.6,1.4,7.6"/>
<path class="st0" d="M1.4,8.3c0,0,1.9,2.1,5.5,2.1s5.6-2.1,5.6-2.1"/>
</svg>
