<?xml version="1.0" encoding="utf-8"?>
<!-- Generator: Adobe Illustrator 25.4.1, SVG Export Plug-In . SVG Version: 6.00 Build 0)  -->
<svg version="1.1" id="Layer_1" xmlns="http://www.w3.org/2000/svg" xmlns:xlink="http://www.w3.org/1999/xlink" x="0px" y="0px"
	 viewBox="0 0 8 8" style="enable-background:new 0 0 8 8;" xml:space="preserve">
<style type="text/css">
	.st0{fill:#D2D2D2;}
</style>
<path class="st0" d="M1.3,0.8C1.1,0.8,0.9,1,0.9,1.2s0.2,0.4,0.4,0.4s0.4-0.2,0.4-0.4S1.5,0.8,1.3,0.8z M2.5,0.8v0.8h4.6V0.8H2.5z
	 M0.9,0.8v0.8h0.8V0.8H0.9z M0.9,2.4v0.8h0.8V2.4H0.9z M0.9,3.9v0.8h0.8V3.9H0.9z M0.9,5.4v0.8h0.8V5.4H0.9z M1.3,2.4
	c-0.2,0-0.4,0.2-0.4,0.4s0.2,0.4,0.4,0.4s0.4-0.2,0.4-0.4S1.5,2.4,1.3,2.4z M1.3,3.9c-0.2,0-0.4,0.2-0.4,0.4c0,0.2,0.2,0.4,0.4,0.4
	s0.4-0.2,0.4-0.4C1.7,4.1,1.5,3.9,1.3,3.9z M2.5,2.4v0.8h4.6V2.4H2.5z M1.3,3.9c-0.2,0-0.4,0.2-0.4,0.4c0,0.2,0.2,0.4,0.4,0.4
	s0.4-0.2,0.4-0.4C1.7,4.1,1.5,3.9,1.3,3.9z M2.5,3.9v0.8h4.6V3.9H2.5z M1.3,5.4c-0.2,0-0.4,0.2-0.4,0.4c0,0.2,0.2,0.4,0.4,0.4
	S1.7,6,1.7,5.8C1.7,5.6,1.5,5.4,1.3,5.4z M2.5,5.4v0.8h4.6V5.4H2.5z"/>
</svg>
