<?xml version="1.0" encoding="utf-8"?>
<!-- Generator: Adobe Illustrator 25.4.1, SVG Export Plug-In . SVG Version: 6.00 Build 0)  -->
<svg version="1.1" id="Layer_1" xmlns="http://www.w3.org/2000/svg" xmlns:xlink="http://www.w3.org/1999/xlink" x="0px" y="0px"
	 viewBox="0 0 8 8" style="enable-background:new 0 0 8 8;" xml:space="preserve">
<style type="text/css">
	.st0{fill:#D2D2D2;}
</style>
<path class="st0" d="M6.5,1.5h0.5v3.4H6.5V1.5z M3,1.1h4v0.5H3V1.1z M5.8,2.2h0.5v3.4H5.8V2.2z M2.3,1.7h4v0.5h-4V1.7z M5.2,2.8h0.5
	v3.4H5.2V2.8z M1.7,2.3h4v0.5h-4V2.3z M1.1,3v4h4V3H1.1z M1.6,3.5h3V5L4,4.5L3.5,5l1,1v0.5H4l-2-2L1.6,5L1.6,3.5z"/>
</svg>
