<?xml version="1.0" encoding="utf-8"?>
<!-- Generator: Adobe Illustrator 25.4.0, SVG Export Plug-In . SVG Version: 6.00 Build 0)  -->
<svg version="1.1" id="Layer_1" xmlns="http://www.w3.org/2000/svg" xmlns:xlink="http://www.w3.org/1999/xlink" x="0px" y="0px"
	 viewBox="0 0 100 100" style="enable-background:new 0 0 100 100;" xml:space="preserve">
<style type="text/css">
	.st0{fill:#FFFFFF;}
</style>
<g>
	<g>
		<g>
			<path class="st0" d="M19.4,60.5L30.9,72c2,0.4,4.1,0.6,6.3,0.6c1.9,0,3.8-0.2,5.6-0.4L20.4,49.7c0.7-3,1.7-5.9,3.1-8.6l28.3,28.3
				c2.6-1.2,5.1-2.7,7.3-4.4L28,34c1.7-2.1,3.7-4.1,5.8-5.8l31,31c1.8-2.2,3.3-4.7,4.5-7.3L41,23.5c2.7-1.4,5.5-2.4,8.5-3.2L72.2,43
				c0.3-1.9,0.5-3.9,0.5-5.9c0-2-0.2-3.9-0.5-5.8l-12-12c2.9,0.1,5.6,0.5,8.3,1.1C62.5,9.2,50.7,1.6,37.2,1.6
				C17.6,1.6,1.7,17.5,1.7,37.1c0,13.6,7.6,25.3,18.8,31.3C19.9,65.8,19.5,63.2,19.4,60.5z"/>
		</g>
		<path class="st0" d="M58.4,98.4c-0.9,0-1.8,0-2.6-0.1l0.6-8.5c1.2,0.1,2.5,0.1,3.8,0c1.3-0.1,2.5-0.2,3.8-0.4l1.4,8.4
			c-1.6,0.3-3.2,0.4-4.8,0.5C59.8,98.4,59.1,98.4,58.4,98.4z"/>
		<path class="st0" d="M46.3,96.5c-3-1-6-2.3-8.7-4l4.5-7.2c2.1,1.3,4.4,2.4,6.8,3.2L46.3,96.5z"/>
		<path class="st0" d="M74.5,95.1l-3.4-7.8c2.3-1,4.5-2.3,6.5-3.8l5.2,6.8C80.2,92.1,77.4,93.8,74.5,95.1z"/>
		<path class="st0" d="M30.2,86.5c-2.2-2.3-4.2-4.8-5.8-7.6l7.3-4.3c1.3,2.2,2.8,4.2,4.6,6L30.2,86.5z"/>
		<path class="st0" d="M89.6,83.5l-6.6-5.3c1.6-2,2.9-4.1,4-6.4l7.7,3.6C93.3,78.3,91.6,81,89.6,83.5z"/>
		<path class="st0" d="M97.6,66.2l-8.4-1.6c0.4-1.9,0.6-3.9,0.6-5.8c0-0.6,0-1.1,0-1.7l0-0.1l8.5-0.4l0,0.1c0,0.7,0.1,1.4,0,2.1
			C98.3,61.3,98,63.8,97.6,66.2z"/>
		<path class="st0" d="M88.4,49.6c-0.7-2.4-1.7-4.7-3-6.9l7.3-4.3c1.6,2.8,2.9,5.7,3.9,8.8L88.4,49.6z"/>
		<path class="st0" d="M80.8,36.8c-1.8-1.8-3.7-3.4-5.9-4.7l4.5-7.2c2.7,1.7,5.2,3.7,7.5,6L80.8,36.8z"/>
	</g>
</g>
</svg>
