<?xml version="1.0" encoding="utf-8"?>
<!-- Generator: Adobe Illustrator 25.4.0, SVG Export Plug-In . SVG Version: 6.00 Build 0)  -->
<svg version="1.1" id="Layer_1" xmlns:serif="http://www.serif.com/"
	 xmlns="http://www.w3.org/2000/svg" xmlns:xlink="http://www.w3.org/1999/xlink" x="0px" y="0px" viewBox="0 0 125 40"
	 style="enable-background:new 0 0 125 40;" xml:space="preserve">
<style type="text/css">
	.st0{fill-rule:evenodd;clip-rule:evenodd;fill:none;stroke:#D2D2D2;stroke-width:2;stroke-miterlimit:10;}
	.st1{fill-rule:evenodd;clip-rule:evenodd;fill:#D2D2D2;}
</style>
<polygon class="st0" points="24,32.2 3.6,32.2 3.6,8.5 18.1,8.5 24,14 24,14 "/>
<polyline class="st1" points="3.6,32.2 7.9,22.6 12.4,30.2 17.3,15.2 24,32.2 "/>
<rect x="7.9" y="13.9" class="st1" width="3.3" height="3.3"/>
<rect x="37.1" y="31.3" class="st0" width="14.4" height="0.9"/>
<rect x="40.6" y="29" class="st0" width="7.3" height="1.7"/>
<rect x="29.4" y="8.5" class="st0" width="29.7" height="19.9"/>
<rect x="29.4" y="25.6" class="st0" width="29.1" height="1.8"/>
<circle class="st0" cx="75.8" cy="20.4" r="12.9"/>
<path class="st0" d="M75.8,33.3"/>
<path class="st0" d="M75.8,7.4"/>
<path class="st0" d="M75.8,7.4c0,0-3,3.5-3,12.6s3,13.3,3,13.3"/>
<path class="st0" d="M75.9,7.5c0,0-8.3,3.5-8.3,12.6s8.3,13.3,8.3,13.3"/>
<path class="st0" d="M76.4,33.4c0,0,3-3.5,3-12.6s-3-13.3-3-13.3"/>
<path class="st0" d="M76.3,33.3c0,0,8.3-3.5,8.3-12.6S76.3,7.4,76.3,7.4"/>
<line class="st0" x1="88.8" y1="20.4" x2="62.9" y2="20.4"/>
<path class="st0" d="M88.8,19.5c0,0-4.5-5-12.9-5s-13,5-13,5"/>
<path class="st0" d="M62.9,21.2c0,0,4.5,5,12.9,5s13-5,13-5"/>
<rect x="93.7" y="12.1" class="st0" width="27.7" height="18.4"/>
<rect x="96.1" y="10.2" class="st0" width="6.6" height="1.9"/>
<circle class="st0" cx="112.1" cy="21.3" r="5.7"/>
</svg>
